<?xml version="1.0" standalone="no"?><!DOCTYPE svg PUBLIC "-//W3C//DTD SVG 1.1//EN" "http://www.w3.org/Graphics/SVG/1.1/DTD/svg11.dtd"><svg t="1642762561704" class="icon" viewBox="0 0 1024 1024" version="1.1" xmlns="http://www.w3.org/2000/svg" p-id="6280" xmlns:xlink="http://www.w3.org/1999/xlink" width="200" height="200"><defs><style type="text/css"></style></defs><path d="M512 1.991111C230.200889 1.991111 1.991111 230.200889 1.991111 512S230.200889 1022.008889 512 1022.008889 1022.008889 793.799111 1022.008889 512 793.315556 1.991111 512 1.991111z" fill="#FF9912" p-id="6281" data-spm-anchor-id="a313x.7781069.0.i10" class="selected"></path><path d="M349.212444 457.728v-108.572444l108.515556-0.056889 0.056889 108.600889-108.572445 0.028444z m108.572445-144.753778h-108.629333a36.181333 36.181333 0 0 0-36.124445 36.124445v108.657777a36.181333 36.181333 0 0 0 36.124445 36.124445h108.629333a36.181333 36.181333 0 0 0 36.124444-36.124445v-108.657777a36.209778 36.209778 0 0 0-36.124444-36.124445z m-108.572445 361.813334v-108.572445l108.515556-0.028444 0.056889 108.572444-108.572445 0.028445z m108.572445-144.753778h-108.629333a36.181333 36.181333 0 0 0-36.124445 36.124444v108.657778a36.181333 36.181333 0 0 0 36.124445 36.124444h108.629333a36.181333 36.181333 0 0 0 36.124444-36.124444v-108.657778a36.209778 36.209778 0 0 0-36.124444-36.124444z m108.430222-72.305778v-108.572444l108.544-0.056889 0.028445 108.600889-108.572445 0.028444z m108.572445-144.753778h-108.600889a36.181333 36.181333 0 0 0-36.124445 36.124445v108.657777a36.181333 36.181333 0 0 0 36.124445 36.124445h108.600889a36.181333 36.181333 0 0 0 36.124444-36.124445v-108.657777c0-19.939556-16.156444-36.067556-36.124444-36.124445z m-54.300445 253.240889a18.062222 18.062222 0 0 0-18.090667 18.090667v108.544a18.062222 18.062222 0 1 0 36.181334 0v-108.544a18.062222 18.062222 0 0 0-18.090667-18.090667m-72.362667 0a18.062222 18.062222 0 0 0-18.090666 18.090667v108.544a18.062222 18.062222 0 1 0 36.181333 0v-108.544a18.062222 18.062222 0 0 0-18.090667-18.090667m144.725334-36.181333a18.062222 18.062222 0 0 0-18.090667 18.090666v144.725334a18.062222 18.062222 0 1 0 36.181333 0V548.124444a18.062222 18.062222 0 0 0-18.090666-18.090666" fill="#FFFFFF" p-id="6282"></path></svg>